<mxfile host="app.diagrams.net" modified="2023-12-04T15:52:18.595Z" agent="Mozilla/5.0 (Macintosh; Intel Mac OS X 10_15_7) AppleWebKit/537.36 (KHTML, like Gecko) Chrome/119.0.0.0 Safari/537.36" etag="ku8NpN8_XQUG8rf5sule" version="22.1.5" type="github">
  <diagram name="Page-1" id="74e2e168-ea6b-b213-b513-2b3c1d86103e">
    <mxGraphModel dx="1194" dy="688" grid="1" gridSize="10" guides="1" tooltips="1" connect="1" arrows="1" fold="1" page="1" pageScale="1" pageWidth="1100" pageHeight="850" background="none" math="0" shadow="0">
      <root>
        <mxCell id="0" />
        <mxCell id="1" parent="0" />
        <mxCell id="77e6c97f196da883-1" value="&lt;font style=&quot;font-size: 13px;&quot;&gt;Pull Request 생성 시 Flow&lt;/font&gt;" style="swimlane;html=1;childLayout=stackLayout;startSize=40;rounded=0;shadow=0;labelBackgroundColor=none;strokeWidth=2;fontFamily=Verdana;fontSize=8;align=center;" parent="1" vertex="1">
          <mxGeometry x="70" y="40" width="960" height="650" as="geometry" />
        </mxCell>
        <mxCell id="77e6c97f196da883-2" value="&lt;font style=&quot;font-size: 14px;&quot;&gt;세부 업무 절차&lt;/font&gt;" style="swimlane;html=1;startSize=30;strokeWidth=2;" parent="77e6c97f196da883-1" vertex="1">
          <mxGeometry y="40" width="160" height="610" as="geometry" />
        </mxCell>
        <mxCell id="G8M2AKYga1nAGyqbxcYK-33" value="1. 개발 &amp;amp;&amp;nbsp;&lt;br style=&quot;font-size: 14px;&quot;&gt;Pull Requset" style="whiteSpace=wrap;html=1;fillColor=#dae8fc;strokeColor=#6c8ebf;fontSize=14;" vertex="1" parent="77e6c97f196da883-2">
          <mxGeometry y="30" width="160" height="260" as="geometry" />
        </mxCell>
        <mxCell id="G8M2AKYga1nAGyqbxcYK-34" value="2. 정적 검증" style="whiteSpace=wrap;html=1;fillColor=#dae8fc;strokeColor=#6c8ebf;fontSize=14;" vertex="1" parent="77e6c97f196da883-2">
          <mxGeometry y="290" width="160" height="318" as="geometry" />
        </mxCell>
        <mxCell id="77e6c97f196da883-26" style="edgeStyle=orthogonalEdgeStyle;rounded=1;html=1;labelBackgroundColor=none;startArrow=none;startFill=0;startSize=5;endArrow=classicThin;endFill=1;endSize=5;jettySize=auto;orthogonalLoop=1;strokeWidth=2;fontFamily=Verdana;fontSize=8" parent="77e6c97f196da883-1" source="77e6c97f196da883-8" target="77e6c97f196da883-11" edge="1">
          <mxGeometry relative="1" as="geometry" />
        </mxCell>
        <mxCell id="107ba76e4e335f99-6" style="edgeStyle=orthogonalEdgeStyle;rounded=1;html=1;labelBackgroundColor=none;startArrow=none;startFill=0;startSize=5;endArrow=classicThin;endFill=1;endSize=5;jettySize=auto;orthogonalLoop=1;strokeWidth=2;fontFamily=Verdana;fontSize=8" parent="77e6c97f196da883-1" source="77e6c97f196da883-14" target="77e6c97f196da883-19" edge="1">
          <mxGeometry relative="1" as="geometry" />
        </mxCell>
        <mxCell id="77e6c97f196da883-3" value="&lt;font style=&quot;font-size: 14px;&quot;&gt;Jira&lt;/font&gt;" style="swimlane;html=1;startSize=30;strokeWidth=2;" parent="77e6c97f196da883-1" vertex="1">
          <mxGeometry x="160" y="40" width="160" height="610" as="geometry" />
        </mxCell>
        <mxCell id="77e6c97f196da883-8" value="개발 티켓 생성" style="rounded=1;whiteSpace=wrap;html=1;shadow=0;labelBackgroundColor=none;strokeWidth=2;fontFamily=Verdana;fontSize=12;align=center;" parent="77e6c97f196da883-3" vertex="1">
          <mxGeometry x="30" y="100" width="100" height="40" as="geometry" />
        </mxCell>
        <mxCell id="77e6c97f196da883-4" value="&lt;font style=&quot;font-size: 14px;&quot;&gt;개발자 (Local)&lt;/font&gt;" style="swimlane;html=1;startSize=30;strokeWidth=2;" parent="77e6c97f196da883-1" vertex="1">
          <mxGeometry x="320" y="40" width="160" height="610" as="geometry" />
        </mxCell>
        <mxCell id="77e6c97f196da883-14" value="Merge 진행" style="rounded=1;whiteSpace=wrap;html=1;shadow=0;labelBackgroundColor=none;strokeWidth=2;fontFamily=Verdana;fontSize=12;align=center;" parent="77e6c97f196da883-4" vertex="1">
          <mxGeometry x="30" y="540" width="100" height="40" as="geometry" />
        </mxCell>
        <mxCell id="77e6c97f196da883-11" value="&lt;font style=&quot;font-size: 12px;&quot;&gt;개발 진행&lt;/font&gt;" style="rounded=1;whiteSpace=wrap;html=1;shadow=0;labelBackgroundColor=none;strokeWidth=2;fontFamily=Verdana;fontSize=8;align=center;" parent="77e6c97f196da883-4" vertex="1">
          <mxGeometry x="30" y="100" width="100" height="40" as="geometry" />
        </mxCell>
        <mxCell id="G8M2AKYga1nAGyqbxcYK-23" value="" style="endArrow=none;html=1;rounded=0;strokeWidth=2;" edge="1" parent="77e6c97f196da883-4">
          <mxGeometry width="50" height="50" relative="1" as="geometry">
            <mxPoint x="-320" y="290" as="sourcePoint" />
            <mxPoint x="640" y="290" as="targetPoint" />
          </mxGeometry>
        </mxCell>
        <mxCell id="77e6c97f196da883-5" value="&lt;font style=&quot;font-size: 14px;&quot;&gt;Bitbucket&lt;/font&gt;" style="swimlane;html=1;startSize=30;strokeWidth=2;" parent="77e6c97f196da883-1" vertex="1">
          <mxGeometry x="480" y="40" width="160" height="610" as="geometry" />
        </mxCell>
        <mxCell id="77e6c97f196da883-19" value="Merge" style="rounded=1;whiteSpace=wrap;html=1;shadow=0;labelBackgroundColor=none;strokeWidth=2;fontFamily=Verdana;fontSize=12;align=center;" parent="77e6c97f196da883-5" vertex="1">
          <mxGeometry x="30" y="540" width="100" height="40" as="geometry" />
        </mxCell>
        <mxCell id="G8M2AKYga1nAGyqbxcYK-1" value="&lt;font style=&quot;font-size: 12px;&quot;&gt;Pull Request&lt;/font&gt;" style="rounded=1;whiteSpace=wrap;html=1;shadow=0;labelBackgroundColor=none;strokeWidth=2;fontFamily=Verdana;fontSize=8;align=center;" vertex="1" parent="77e6c97f196da883-5">
          <mxGeometry x="30" y="130" width="100" height="40" as="geometry" />
        </mxCell>
        <mxCell id="G8M2AKYga1nAGyqbxcYK-19" value="&lt;span style=&quot;font-size: 12px;&quot;&gt;Merge 제한&lt;/span&gt;" style="rounded=1;whiteSpace=wrap;html=1;shadow=0;labelBackgroundColor=none;strokeWidth=2;fontFamily=Verdana;fontSize=8;align=center;" vertex="1" parent="77e6c97f196da883-5">
          <mxGeometry x="30" y="60" width="100" height="40" as="geometry" />
        </mxCell>
        <mxCell id="G8M2AKYga1nAGyqbxcYK-25" style="edgeStyle=orthogonalEdgeStyle;rounded=0;orthogonalLoop=1;jettySize=auto;html=1;strokeWidth=2;exitX=0.5;exitY=1;exitDx=0;exitDy=0;" edge="1" parent="77e6c97f196da883-5" source="G8M2AKYga1nAGyqbxcYK-20" target="77e6c97f196da883-19">
          <mxGeometry relative="1" as="geometry">
            <mxPoint x="80" y="258" as="sourcePoint" />
          </mxGeometry>
        </mxCell>
        <mxCell id="G8M2AKYga1nAGyqbxcYK-20" value="&lt;font style=&quot;font-size: 12px;&quot;&gt;Pull Request&lt;br&gt;Approval&lt;br&gt;&lt;/font&gt;" style="rounded=1;whiteSpace=wrap;html=1;shadow=0;labelBackgroundColor=none;strokeWidth=2;fontFamily=Verdana;fontSize=8;align=center;" vertex="1" parent="77e6c97f196da883-5">
          <mxGeometry x="30" y="200" width="100" height="51" as="geometry" />
        </mxCell>
        <mxCell id="77e6c97f196da883-6" value="&lt;font style=&quot;font-size: 14px;&quot;&gt;Bamboo&lt;/font&gt;" style="swimlane;html=1;startSize=30;strokeWidth=2;" parent="77e6c97f196da883-1" vertex="1">
          <mxGeometry x="640" y="40" width="160" height="610" as="geometry" />
        </mxCell>
        <mxCell id="77e6c97f196da883-18" value="정적 검증 수행 요청" style="rounded=1;whiteSpace=wrap;html=1;shadow=0;labelBackgroundColor=none;strokeWidth=2;fontFamily=Verdana;fontSize=12;align=center;" parent="77e6c97f196da883-6" vertex="1">
          <mxGeometry x="20" y="410" width="120" height="40" as="geometry" />
        </mxCell>
        <mxCell id="G8M2AKYga1nAGyqbxcYK-14" style="edgeStyle=orthogonalEdgeStyle;rounded=0;orthogonalLoop=1;jettySize=auto;html=1;exitX=0.5;exitY=1;exitDx=0;exitDy=0;entryX=0.5;entryY=0;entryDx=0;entryDy=0;strokeWidth=2;" edge="1" parent="77e6c97f196da883-6" source="G8M2AKYga1nAGyqbxcYK-11" target="77e6c97f196da883-18">
          <mxGeometry relative="1" as="geometry" />
        </mxCell>
        <mxCell id="G8M2AKYga1nAGyqbxcYK-11" value="&lt;font style=&quot;font-size: 12px;&quot;&gt;Pull Request&lt;br&gt;Plan 시작&lt;br&gt;&lt;/font&gt;" style="rounded=1;whiteSpace=wrap;html=1;shadow=0;labelBackgroundColor=none;strokeWidth=2;fontFamily=Verdana;fontSize=8;align=center;" vertex="1" parent="77e6c97f196da883-6">
          <mxGeometry x="30" y="319" width="100" height="51" as="geometry" />
        </mxCell>
        <mxCell id="77e6c97f196da883-7" value="&lt;font style=&quot;font-size: 14px;&quot;&gt;SonarQube&lt;/font&gt;" style="swimlane;html=1;startSize=30;strokeWidth=2;" parent="77e6c97f196da883-1" vertex="1">
          <mxGeometry x="800" y="40" width="160" height="610" as="geometry" />
        </mxCell>
        <mxCell id="G8M2AKYga1nAGyqbxcYK-17" style="edgeStyle=orthogonalEdgeStyle;rounded=0;orthogonalLoop=1;jettySize=auto;html=1;exitX=0.5;exitY=1;exitDx=0;exitDy=0;entryX=0.5;entryY=0;entryDx=0;entryDy=0;strokeWidth=2;" edge="1" parent="77e6c97f196da883-7" source="G8M2AKYga1nAGyqbxcYK-13" target="G8M2AKYga1nAGyqbxcYK-16">
          <mxGeometry relative="1" as="geometry" />
        </mxCell>
        <mxCell id="G8M2AKYga1nAGyqbxcYK-13" value="정적 검증 수행" style="rounded=1;whiteSpace=wrap;html=1;shadow=0;labelBackgroundColor=none;strokeWidth=2;fontFamily=Verdana;fontSize=12;align=center;" vertex="1" parent="77e6c97f196da883-7">
          <mxGeometry x="30" y="410" width="100" height="40" as="geometry" />
        </mxCell>
        <mxCell id="G8M2AKYga1nAGyqbxcYK-16" value="&lt;font style=&quot;font-size: 12px;&quot;&gt;QualityGate&lt;br&gt;통과 여부&lt;/font&gt;" style="rhombus;whiteSpace=wrap;html=1;rounded=0;shadow=0;labelBackgroundColor=none;strokeWidth=2;fontFamily=Verdana;fontSize=8;align=center;" vertex="1" parent="77e6c97f196da883-7">
          <mxGeometry x="20" y="476" width="120" height="70" as="geometry" />
        </mxCell>
        <mxCell id="G8M2AKYga1nAGyqbxcYK-2" style="edgeStyle=orthogonalEdgeStyle;rounded=0;orthogonalLoop=1;jettySize=auto;html=1;exitX=1;exitY=0.5;exitDx=0;exitDy=0;strokeWidth=2;entryX=0;entryY=0.5;entryDx=0;entryDy=0;" edge="1" parent="77e6c97f196da883-1" source="77e6c97f196da883-11" target="G8M2AKYga1nAGyqbxcYK-1">
          <mxGeometry relative="1" as="geometry">
            <Array as="points">
              <mxPoint x="470" y="160" />
              <mxPoint x="470" y="190" />
            </Array>
          </mxGeometry>
        </mxCell>
        <mxCell id="G8M2AKYga1nAGyqbxcYK-15" style="edgeStyle=orthogonalEdgeStyle;rounded=0;orthogonalLoop=1;jettySize=auto;html=1;exitX=1;exitY=0.5;exitDx=0;exitDy=0;entryX=0;entryY=0.5;entryDx=0;entryDy=0;strokeWidth=2;" edge="1" parent="77e6c97f196da883-1" source="77e6c97f196da883-18" target="G8M2AKYga1nAGyqbxcYK-13">
          <mxGeometry relative="1" as="geometry" />
        </mxCell>
        <mxCell id="G8M2AKYga1nAGyqbxcYK-18" style="edgeStyle=orthogonalEdgeStyle;rounded=0;orthogonalLoop=1;jettySize=auto;html=1;exitX=1;exitY=0.5;exitDx=0;exitDy=0;entryX=1;entryY=0.5;entryDx=0;entryDy=0;strokeWidth=2;strokeColor=#FF6666;" edge="1" parent="77e6c97f196da883-1" source="G8M2AKYga1nAGyqbxcYK-16" target="G8M2AKYga1nAGyqbxcYK-19">
          <mxGeometry relative="1" as="geometry">
            <mxPoint x="690" y="90" as="targetPoint" />
            <Array as="points">
              <mxPoint x="950" y="551" />
              <mxPoint x="950" y="120" />
            </Array>
          </mxGeometry>
        </mxCell>
        <mxCell id="G8M2AKYga1nAGyqbxcYK-29" value="NO" style="edgeLabel;html=1;align=center;verticalAlign=middle;resizable=0;points=[];" vertex="1" connectable="0" parent="G8M2AKYga1nAGyqbxcYK-18">
          <mxGeometry x="-0.7363" relative="1" as="geometry">
            <mxPoint x="-20" y="72" as="offset" />
          </mxGeometry>
        </mxCell>
        <mxCell id="G8M2AKYga1nAGyqbxcYK-24" style="edgeStyle=orthogonalEdgeStyle;rounded=0;orthogonalLoop=1;jettySize=auto;html=1;entryX=0.5;entryY=0;entryDx=0;entryDy=0;strokeWidth=2;strokeColor=#FF6666;exitX=0;exitY=0.5;exitDx=0;exitDy=0;" edge="1" parent="77e6c97f196da883-1" source="G8M2AKYga1nAGyqbxcYK-19" target="77e6c97f196da883-11">
          <mxGeometry relative="1" as="geometry">
            <Array as="points">
              <mxPoint x="490" y="120" />
              <mxPoint x="490" y="110" />
              <mxPoint x="400" y="110" />
            </Array>
          </mxGeometry>
        </mxCell>
        <mxCell id="G8M2AKYga1nAGyqbxcYK-27" style="edgeStyle=orthogonalEdgeStyle;rounded=0;orthogonalLoop=1;jettySize=auto;html=1;exitX=1;exitY=0.5;exitDx=0;exitDy=0;strokeWidth=2;" edge="1" parent="77e6c97f196da883-1" source="G8M2AKYga1nAGyqbxcYK-1" target="G8M2AKYga1nAGyqbxcYK-11">
          <mxGeometry relative="1" as="geometry" />
        </mxCell>
        <mxCell id="G8M2AKYga1nAGyqbxcYK-31" style="edgeStyle=orthogonalEdgeStyle;rounded=0;orthogonalLoop=1;jettySize=auto;html=1;exitX=0.5;exitY=1;exitDx=0;exitDy=0;strokeWidth=2;strokeColor=#0000FF;entryX=1;entryY=0.5;entryDx=0;entryDy=0;" edge="1" parent="77e6c97f196da883-1" source="G8M2AKYga1nAGyqbxcYK-16" target="G8M2AKYga1nAGyqbxcYK-20">
          <mxGeometry relative="1" as="geometry">
            <mxPoint x="690" y="230" as="targetPoint" />
            <Array as="points">
              <mxPoint x="880" y="600" />
              <mxPoint x="630" y="600" />
              <mxPoint x="630" y="266" />
            </Array>
          </mxGeometry>
        </mxCell>
        <mxCell id="G8M2AKYga1nAGyqbxcYK-32" value="YES" style="edgeLabel;html=1;align=center;verticalAlign=middle;resizable=0;points=[];" vertex="1" connectable="0" parent="G8M2AKYga1nAGyqbxcYK-31">
          <mxGeometry x="-0.7803" y="2" relative="1" as="geometry">
            <mxPoint x="13" y="-16" as="offset" />
          </mxGeometry>
        </mxCell>
      </root>
    </mxGraphModel>
  </diagram>
</mxfile>
